<svg width="220" height="34" viewBox="0 0 220 34" fill="none" xmlns="http://www.w3.org/2000/svg">
<path d="M0.0389548 0.122551C0.00432831 0.20307 -0.00721385 5.34478 0.00432831 11.5447L0.0389548 22.8174H20.4686H40.8982V11.4297V0.0420322L20.4917 0.00752258C4.22876 -0.0154819 0.0735813 0.00752258 0.0389548 0.122551ZM20.8726 1.24981C22.1191 1.57189 22.6847 1.73293 22.8924 1.82495C25.3048 2.8947 26.7475 4.01046 27.844 5.66685C28.3865 6.47204 28.3288 6.54106 27.1284 6.54106H26.2858L25.8357 6.04644C25.5818 5.78188 25.374 5.52882 25.374 5.48281C25.374 5.32177 23.5388 3.90694 22.8347 3.52735C21.7382 2.94071 21.4843 2.9062 21.1957 3.26279C20.9072 3.63087 20.7571 3.59637 20.5956 3.09025C20.4455 2.64164 20.2262 2.53812 19.2336 2.52662C18.5988 2.51511 18.5641 2.52662 18.5641 2.79118C18.5641 3.22828 18.3564 3.26279 18.0217 2.8717C17.7562 2.57263 17.6292 2.51511 17.2368 2.52662C16.3019 2.56112 16.0826 2.65314 16.0249 3.07874C15.9556 3.56186 15.8056 3.63087 15.4477 3.3203C15.1015 3.02123 15.0899 3.02123 14.2704 3.45833C13.6472 3.79191 13.5895 3.84943 13.6587 4.11399C13.7049 4.27503 13.7395 4.45907 13.751 4.52809C13.7626 4.5971 13.5317 4.63161 13.1739 4.6086C12.5853 4.5741 12.5622 4.5856 12.0428 5.11472C11.4657 5.72437 11.4542 5.75887 11.6965 5.96592C12.0428 6.25349 11.9043 6.51805 11.3618 6.59857C10.8886 6.66759 10.8424 6.7136 10.5539 7.28873C10.1961 8.03641 10.173 8.33548 10.4962 8.439C10.8424 8.55403 10.7155 8.8531 10.2653 9.01414C9.81517 9.16367 9.73438 9.31321 9.61895 10.2909L9.53816 10.9926L9.89597 11.1191C10.3461 11.2802 10.3577 11.5447 9.90751 11.7748C9.60741 11.9243 9.56124 12.0163 9.57279 12.3844C9.57279 12.6145 9.64204 13.0631 9.72283 13.3852C9.8498 13.9373 9.87288 13.9603 10.2307 13.9258C10.7155 13.8798 10.8424 14.1558 10.4846 14.5354C10.1845 14.8575 10.2191 15.1796 10.6808 15.9503C10.9578 16.4449 10.9809 16.4449 11.4311 16.3759C11.9389 16.2838 11.9389 16.2838 11.6965 17.1005C11.6273 17.3076 11.7196 17.4686 12.1813 17.9287L12.7584 18.5039L13.1278 18.3198C13.5779 18.0898 13.6933 18.1818 13.7395 18.7914C13.7741 19.2285 13.8088 19.2746 14.4436 19.5851C15.0899 19.9187 15.1246 19.9187 15.4477 19.7347C15.8748 19.4816 15.8633 19.4816 16.0133 19.8842C16.1518 20.2753 16.5789 20.5053 17.433 20.6319C17.8947 20.7009 17.9986 20.6779 18.1717 20.4708C18.4487 20.1603 18.5872 20.1718 18.8873 20.5168C19.1759 20.8389 19.3952 20.8619 20.5263 20.6779C21.8998 20.4593 23.8966 19.7232 24.4853 19.217C24.6699 19.0445 24.6469 19.0215 24.0697 18.7339C23.7235 18.5614 23.1348 18.2163 22.7655 17.9517C22.3961 17.6872 22.0268 17.4686 21.9575 17.4686C21.8883 17.4686 21.4958 17.5722 21.1034 17.6987C19.1066 18.3313 16.475 17.6067 14.7783 15.9503C14.432 15.6167 14.0742 15.1796 13.9819 14.9955C13.878 14.8 13.751 14.6275 13.7049 14.5814C13.6472 14.5469 13.4394 14.0638 13.2432 13.4887C12.92 12.5455 12.8854 12.3729 12.9431 11.3722C13.0239 9.77332 13.6472 8.45051 14.8476 7.33475C16.071 6.19598 17.3868 5.70136 19.2105 5.71286C20.5725 5.71286 21.6343 6.06945 22.8924 6.94365C23.2041 7.1507 23.4696 7.17371 25.9973 7.23122L28.779 7.28873L28.9636 7.69133C29.6562 9.17518 29.8985 11.9933 29.483 13.8453C29.1714 15.2026 28.6404 16.4219 28.3173 16.5024C28.1788 16.5369 27.2785 16.5484 26.332 16.5254L24.6007 16.4909L23.9428 15.8813L23.2733 15.2831H22.1307C21.2073 15.2831 20.9649 15.3176 20.9187 15.4557C20.7802 15.8122 21.0803 15.9503 22.0845 15.9848L23.0656 16.0308L23.5273 16.5254C24.1159 17.1466 24.7738 17.2961 26.5629 17.1926C28.0056 17.112 28.1441 17.2041 27.6247 17.8827C26.0088 19.9992 23.4465 21.5406 20.8726 21.9432C19.2797 22.2077 17.2599 22.0582 15.8633 21.5981C15.1707 21.368 13.9473 20.8159 13.8318 20.6894C13.7972 20.6549 13.6472 20.5629 13.4856 20.4823C12.6892 20.0797 11.2233 18.7454 10.4615 17.7332C9.59587 16.5599 8.8918 14.869 8.62633 13.3507C8.45319 12.3844 8.55707 9.79632 8.811 8.89911C9.12264 7.74884 10.0806 5.91991 10.8424 4.9997C12.0544 3.51585 14.432 1.97449 16.0826 1.5949C16.4057 1.52588 16.7636 1.41085 16.8905 1.36484C17.0175 1.30733 17.2252 1.23831 17.3522 1.21531C17.7908 1.11178 20.4686 1.14629 20.8726 1.24981Z" fill="#1A374E"/>
<path d="M17.2714 8.28023C17.0174 8.41826 17.0059 8.68282 17.2483 8.77484C17.3522 8.80935 19.4644 8.84386 21.946 8.84386C25.651 8.85536 26.5282 8.87837 26.759 9.0164C27.4631 9.419 27.8209 8.98189 27.2092 8.46427L26.8283 8.1537H22.1422C19.1874 8.1537 17.3983 8.19971 17.2714 8.28023Z" fill="#388153"/>
<path d="M15.2171 10.4549C14.6977 10.9725 15.1017 11.7202 15.8866 11.7202C16.129 11.7202 16.4521 11.6282 16.6022 11.5132C16.8677 11.3406 17.237 11.3176 20.4804 11.3291C23.6429 11.3291 24.0931 11.3521 24.3354 11.5247C24.9472 11.9503 25.9513 11.6512 25.9513 11.0531C25.9513 10.2479 25.178 9.9718 24.347 10.4779C23.943 10.7425 23.8853 10.7425 20.4226 10.7195C17.0754 10.6965 16.8907 10.685 16.5906 10.4664C16.1751 10.1558 15.5172 10.1558 15.2171 10.4549ZM16.2328 10.593C16.3136 10.6735 16.3713 10.8805 16.3713 11.0531C16.3713 11.2946 16.3021 11.3866 16.0828 11.4442C15.725 11.5362 15.448 11.3291 15.448 10.984C15.448 10.685 15.6557 10.4549 15.9097 10.4549C16.0135 10.4549 16.152 10.5124 16.2328 10.593ZM25.4319 10.616C25.6166 10.754 25.6397 10.8345 25.5474 11.1106C25.3396 11.6742 24.5663 11.5707 24.5663 10.961C24.5663 10.5239 25.0511 10.3284 25.4319 10.616Z" fill="#388153"/>
<path d="M17.144 13.4911C16.994 13.8592 17.3172 13.9052 20.0642 13.9052C21.5532 13.9052 23.0075 13.9628 23.296 14.0318C23.6077 14.1008 24.0347 14.3308 24.3925 14.6299C25.4082 15.4811 25.489 15.5156 26.6779 15.5156C27.7744 15.5156 28.0283 15.4236 28.0283 15.044C28.0283 14.791 27.6936 14.7104 26.5278 14.7104C25.5583 14.7104 25.2236 14.6069 24.8542 14.2043C24.7965 14.1353 24.5426 13.9052 24.3002 13.6982L23.8616 13.3301H20.5374C17.8135 13.3301 17.1902 13.3646 17.144 13.4911Z" fill="#388153"/>
<path d="M42.9175 15.7229C42.9175 22.3484 42.8829 24.4764 42.779 24.58C42.6752 24.6835 38.3122 24.718 23.8614 24.718H5.07078L5.00152 25.2011C4.93227 25.7647 5.00152 28.3758 5.09386 28.4679C5.12849 28.5024 6.00569 28.5369 7.04449 28.5369C8.07174 28.5484 8.99511 28.5944 9.07591 28.6634C9.14516 28.7209 9.21441 29.02 9.21441 29.3076C9.21441 30.8029 9.73381 31.9647 10.8188 32.8964C12.9194 34.7023 16.1166 34.2422 17.6633 31.9072C18.0903 31.263 18.3443 30.4463 18.4135 29.4571L18.4828 28.6289L20.8027 28.6519L23.1227 28.6864L23.192 29.6066C23.2843 30.7339 23.3882 31.079 23.9076 31.8842C24.4154 32.6664 25.1657 33.299 26.0313 33.6671C26.5854 33.9086 26.8855 33.9547 27.7973 33.9547C28.7322 33.9547 28.9861 33.9201 29.5633 33.6556C30.4751 33.2415 31.0637 32.7584 31.5485 32.0222C32.1025 31.194 32.4142 30.2393 32.4142 29.3536V28.6289H38.0698H43.7255V29.3536C43.7255 31.2055 44.6604 32.7009 46.3571 33.5406C47.1997 33.9432 47.3036 33.9777 48.3424 33.9777C49.335 33.9777 49.5081 33.9317 50.2237 33.6096C51.8743 32.8274 52.9592 31.1825 52.9592 29.4456V28.6289H56.4796H59.9999V22.544V16.4705L59.3536 15.0442C58.9958 14.262 58.6611 13.5719 58.6033 13.5144C58.5456 13.4453 58.4995 13.3303 58.4995 13.2383C58.4995 13.1578 58.3725 12.8012 58.2109 12.4561C57.6107 11.1678 57.3568 10.5927 56.8258 9.41939C56.5257 8.75224 56.2372 8.15409 56.191 8.09658C56.1449 8.02757 56.0641 7.80901 56.0179 7.60196C55.9602 7.34891 55.8448 7.18787 55.6485 7.10735C55.487 7.04984 52.7515 7.00382 49.1388 7.00382H42.9175V15.7229ZM54.5405 10.3396C54.7483 10.7537 54.9214 11.1333 54.9214 11.1908C54.9214 11.2483 55.0484 11.5589 55.1984 11.881C55.4754 12.4676 55.7178 13.0197 56.191 14.078C56.3295 14.3886 56.5373 14.8602 56.6527 15.1132C56.7681 15.3778 56.9066 15.7229 56.9413 15.8954L57.0221 16.206L51.3895 16.183L45.7454 16.1485L45.7107 13.1003C45.6992 11.4209 45.7107 9.93701 45.7454 9.78748L45.8031 9.53442L49.9929 9.55742L54.1712 9.59193L54.5405 10.3396ZM14.8354 27.8237C15.4818 28.3068 15.7704 29.043 15.5741 29.7677C15.3433 30.6534 14.6277 31.2055 13.762 31.1825C12.123 31.1595 11.3151 29.204 12.4693 28.0538C12.9194 27.5937 13.1734 27.4901 13.8428 27.4901C14.2468 27.4786 14.4661 27.5592 14.8354 27.8237ZM28.6053 27.6512C29.1362 27.9272 29.5286 28.5254 29.5979 29.158C29.7018 30.3083 28.8823 31.2055 27.7396 31.1825C27.1394 31.1825 26.8047 31.0215 26.3776 30.5499C25.9852 30.1243 25.9044 29.8252 25.9736 29.0775C26.0891 27.8697 27.5203 27.0875 28.6053 27.6512ZM49.3581 27.7892C50.1429 28.2953 50.4084 29.3651 49.9813 30.2278C49.3119 31.5621 47.3497 31.5046 46.6226 30.1473C46.4033 29.7217 46.4725 28.8129 46.7611 28.3873C47.3959 27.4441 48.4462 27.2026 49.3581 27.7892Z" fill="#1A374E"/>
<path d="M80.4703 24.7808V12.5411H76V9.22315H88.9142V12.5411H84.4439V24.7808H80.4703Z" fill="#1A374E"/>
<path d="M97.1108 24.7808H93.1372V9.22315H97.1108V24.7808Z" fill="#1A374E"/>
<path d="M106.555 24.7808H102.581V9.22315H110.081C112.052 9.22315 113.484 9.66555 114.378 10.5503C115.289 11.4187 115.744 12.705 115.744 14.409C115.744 15.6871 115.421 16.7849 114.775 17.7024C114.13 18.6036 113.277 19.1689 112.217 19.3983L112.192 19.472C112.606 19.7342 113.062 20.1684 113.558 20.7746C114.055 21.3809 114.544 22.0445 115.024 22.7654C115.52 23.47 115.959 24.1335 116.34 24.7562V24.7808H111.721L109.038 20.8483C108.807 20.5043 108.616 20.2585 108.467 20.111C108.335 19.9636 108.169 19.8734 107.971 19.8407C107.788 19.8079 107.49 19.7915 107.076 19.7915H106.555V24.7808ZM109.436 12.4182H106.555V16.5964H109.436C110.264 16.5964 110.835 16.4326 111.149 16.1049C111.481 15.7772 111.646 15.2447 111.646 14.5073C111.646 13.77 111.481 13.2375 111.149 12.9098C110.835 12.5821 110.264 12.4182 109.436 12.4182Z" fill="#1A374E"/>
<path d="M121.072 24.7808V9.22315H132.744V12.4182H125.045V15.3675H131.726V18.5626H125.045V21.5857H132.744V24.7808H121.072Z" fill="#1A374E"/>
<path d="M140.438 24.7808V12.5411H135.968V9.22315H148.882V12.5411H144.412V24.7808H140.438Z" fill="#1A374E"/>
<path d="M157.079 24.7808H153.105V9.22315H160.605C162.576 9.22315 164.008 9.66555 164.902 10.5503C165.812 11.4187 166.268 12.705 166.268 14.409C166.268 15.6871 165.945 16.7849 165.299 17.7024C164.653 18.6036 163.801 19.1689 162.741 19.3983L162.716 19.472C163.13 19.7342 163.586 20.1684 164.082 20.7746C164.579 21.3809 165.067 22.0445 165.548 22.7654C166.044 23.47 166.483 24.1335 166.864 24.7562V24.7808H162.244L159.562 20.8483C159.33 20.5043 159.14 20.2585 158.991 20.111C158.859 19.9636 158.693 19.8734 158.494 19.8407C158.312 19.8079 158.014 19.7915 157.6 19.7915H157.079V24.7808ZM159.96 12.4182H157.079V16.5964H159.96C160.787 16.5964 161.359 16.4326 161.673 16.1049C162.004 15.7772 162.17 15.2447 162.17 14.5073C162.17 13.77 162.004 13.2375 161.673 12.9098C161.359 12.5821 160.787 12.4182 159.96 12.4182Z" fill="#1A374E"/>
<path d="M186 24.707V24.7808H181.778C181.662 24.3875 181.521 23.9369 181.356 23.429C181.207 22.9211 181.041 22.3803 180.859 21.8069H175.495C175.164 22.9538 174.857 23.9451 174.576 24.7808H170.354V24.7316L175.445 9.22315H180.909L186 24.707ZM178.127 12.025C177.962 12.8606 177.722 13.8765 177.407 15.0726C177.092 16.2687 176.761 17.4894 176.414 18.7347H179.965C179.601 17.4894 179.261 16.2687 178.947 15.0726C178.632 13.8765 178.392 12.8606 178.227 12.025H178.127Z" fill="#1A374E"/>
<path d="M201.954 21.4136V24.5104C201.159 24.6743 200.381 24.7971 199.619 24.8791C198.858 24.961 197.955 25.002 196.912 25.002C195.571 25.002 194.437 24.8873 193.51 24.6579C192.599 24.4285 191.863 24.027 191.3 23.4536C190.753 22.8637 190.356 22.0363 190.107 20.9712C189.859 19.9062 189.735 18.5381 189.735 16.8668C189.735 15.261 189.859 13.942 190.107 12.9098C190.356 11.8775 190.753 11.0829 191.3 10.5258C191.863 9.95229 192.599 9.55904 193.51 9.34604C194.437 9.11665 195.571 9.00195 196.912 9.00195C197.955 9.00195 198.858 9.04292 199.619 9.12484C200.381 9.19038 201.159 9.31327 201.954 9.4935V12.6886L201.879 12.7377C201.184 12.5739 200.513 12.4592 199.868 12.3937C199.222 12.3117 198.427 12.2708 197.484 12.2708C196.722 12.2708 196.093 12.3281 195.596 12.4428C195.116 12.5411 194.735 12.7459 194.454 13.0573C194.172 13.3686 193.973 13.8274 193.858 14.4336C193.758 15.0398 193.709 15.8509 193.709 16.8668C193.709 17.9318 193.758 18.792 193.858 19.4474C193.973 20.0864 194.172 20.5698 194.454 20.8975C194.735 21.2252 195.116 21.4464 195.596 21.5611C196.093 21.6758 196.722 21.7331 197.484 21.7331C198.411 21.7331 199.197 21.7086 199.843 21.6594C200.505 21.5939 201.167 21.4792 201.83 21.3153L201.954 21.4136Z" fill="#1A374E"/>
<path d="M210.513 24.7808H206.539V9.22315H210.513V15.7362C210.546 15.7362 210.571 15.7362 210.587 15.7362C210.753 15.7362 210.943 15.6051 211.159 15.343C211.391 15.0808 211.597 14.8186 211.78 14.5565L215.107 9.22315H219.429V9.29688L216.598 13.8192C216.349 14.2288 216.068 14.6712 215.753 15.1463C215.439 15.6051 215.124 16.0148 214.809 16.3752C214.511 16.7193 214.247 16.9323 214.015 17.0142V17.088C214.247 17.1863 214.511 17.3993 214.809 17.727C215.124 18.0383 215.439 18.407 215.753 18.833C216.084 19.2426 216.399 19.6522 216.697 20.0619L220 24.707V24.7808H215.43L212.326 20.0619V20.0864C212.227 19.9226 212.069 19.7096 211.854 19.4474C211.655 19.1689 211.44 18.9149 211.208 18.6855C210.993 18.4561 210.803 18.3414 210.637 18.3414C210.604 18.3414 210.579 18.3414 210.563 18.3414C210.546 18.3414 210.53 18.3414 210.513 18.3414V24.7808Z" fill="#1A374E"/>
</svg>
