<svg width="260" height="40" viewBox="0 0 260 40" fill="none" xmlns="http://www.w3.org/2000/svg">
<path d="M83.2971 34.9272V11.9029H74.2856V7.61017H97.3581V11.9029H88.3467V34.9272H83.2971Z" fill="#000305"/>
<path d="M101.847 34.9272V14.0882H106.702V34.9272H101.847ZM104.294 10.6541C103.388 10.6541 102.637 10.3679 102.041 9.79554C101.471 9.22318 101.187 8.53375 101.187 7.72724C101.187 6.89472 101.471 6.20529 102.041 5.65895C102.637 5.08659 103.388 4.80042 104.294 4.80042C105.2 4.80042 105.938 5.07359 106.508 5.61993C107.104 6.14025 107.401 6.80367 107.401 7.61017C107.401 8.46871 107.117 9.19716 106.547 9.79554C105.977 10.3679 105.226 10.6541 104.294 10.6541Z" fill="#000305"/>
<path d="M114.24 34.9272V14.0882H118.862V19.8248L118.319 18.1468C118.94 16.7419 119.911 15.6752 121.232 14.9468C122.578 14.2183 124.249 13.8541 126.242 13.8541V18.498C126.035 18.4459 125.841 18.4199 125.66 18.4199C125.479 18.3939 125.297 18.3809 125.116 18.3809C123.277 18.3809 121.814 18.9272 120.727 20.0199C119.639 21.0866 119.095 22.6866 119.095 24.8199V34.9272H114.24Z" fill="#000305"/>
<path d="M141.086 35.2004C138.782 35.2004 136.762 34.7451 135.027 33.8346C133.318 32.898 131.984 31.6232 131.026 30.0102C130.094 28.3972 129.628 26.563 129.628 24.5077C129.628 22.4264 130.081 20.5923 130.987 19.0053C131.92 17.3923 133.188 16.1305 134.794 15.2199C136.425 14.3094 138.277 13.8541 140.348 13.8541C142.368 13.8541 144.168 14.2963 145.747 15.1809C147.327 16.0655 148.57 17.3142 149.476 18.9272C150.383 20.5403 150.836 22.4394 150.836 24.6248C150.836 24.8329 150.823 25.0671 150.797 25.3272C150.797 25.5874 150.784 25.8346 150.758 26.0687H133.473V22.8297H148.195L146.291 23.8443C146.317 22.6476 146.071 21.5939 145.553 20.6833C145.035 19.7728 144.323 19.0573 143.417 18.537C142.537 18.0167 141.514 17.7565 140.348 17.7565C139.157 17.7565 138.108 18.0167 137.202 18.537C136.322 19.0573 135.623 19.7858 135.105 20.7224C134.613 21.6329 134.367 22.7126 134.367 23.9614V24.7419C134.367 25.9907 134.651 27.0963 135.221 28.059C135.791 29.0216 136.594 29.763 137.629 30.2833C138.665 30.8037 139.856 31.0638 141.203 31.0638C142.368 31.0638 143.417 30.8817 144.349 30.5175C145.281 30.1533 146.11 29.5809 146.835 28.8004L149.438 31.8053C148.505 32.898 147.327 33.7435 145.903 34.3419C144.505 34.9142 142.899 35.2004 141.086 35.2004Z" fill="#000305"/>
<path d="M164.472 35.2004C162.194 35.2004 160.433 34.6151 159.19 33.4443C157.947 32.2476 157.325 30.4915 157.325 28.176V9.48334H162.181V28.059C162.181 29.0476 162.427 29.8151 162.919 30.3614C163.437 30.9077 164.149 31.1809 165.055 31.1809C166.143 31.1809 167.049 30.8947 167.774 30.3224L169.133 33.7955C168.564 34.2638 167.865 34.615 167.036 34.8492C166.207 35.0833 165.353 35.2004 164.472 35.2004ZM153.907 18.1468V14.2443H167.735V18.1468H153.907Z" fill="#000305"/>
<path d="M174.293 34.9272V14.0882H178.915V19.8248L178.371 18.1468C178.993 16.7419 179.964 15.6752 181.285 14.9468C182.631 14.2183 184.301 13.8541 186.295 13.8541V18.498C186.088 18.4459 185.894 18.4199 185.713 18.4199C185.531 18.3939 185.35 18.3809 185.169 18.3809C183.33 18.3809 181.867 18.9272 180.78 20.0199C179.692 21.0866 179.148 22.6866 179.148 24.8199V34.9272H174.293Z" fill="#000305"/>
<path d="M202.879 34.9272V30.7126L202.607 29.815V22.4394C202.607 21.0085 202.18 19.9029 201.325 19.1224C200.471 18.3159 199.176 17.9126 197.441 17.9126C196.276 17.9126 195.124 18.0947 193.984 18.459C192.871 18.8232 191.926 19.3305 191.149 19.9809L189.245 16.4297C190.359 15.5711 191.68 14.9337 193.207 14.5175C194.761 14.0752 196.367 13.8541 198.024 13.8541C201.028 13.8541 203.345 14.5825 204.977 16.0394C206.634 17.4703 207.463 19.6947 207.463 22.7126V34.9272H202.879ZM196.354 35.2004C194.8 35.2004 193.44 34.9403 192.275 34.4199C191.11 33.8736 190.204 33.1321 189.556 32.1955C188.935 31.2329 188.624 30.1533 188.624 28.9565C188.624 27.7858 188.896 26.7321 189.44 25.7955C190.009 24.859 190.929 24.1175 192.197 23.5711C193.466 23.0248 195.149 22.7516 197.247 22.7516H203.268V25.9907H197.597C195.939 25.9907 194.826 26.2638 194.256 26.8102C193.686 27.3305 193.402 27.9809 193.402 28.7614C193.402 29.6459 193.751 30.3484 194.45 30.8687C195.149 31.389 196.121 31.6492 197.364 31.6492C198.555 31.6492 199.616 31.376 200.549 30.8297C201.507 30.2833 202.193 29.4768 202.607 28.4102L203.423 31.337C202.957 32.5598 202.115 33.5094 200.898 34.1858C199.707 34.8622 198.192 35.2004 196.354 35.2004Z" fill="#000305"/>
<path d="M224.413 35.2004C222.238 35.2004 220.296 34.7451 218.587 33.8346C216.904 32.898 215.583 31.6232 214.625 30.0102C213.667 28.3972 213.188 26.563 213.188 24.5077C213.188 22.4264 213.667 20.5923 214.625 19.0053C215.583 17.3923 216.904 16.1305 218.587 15.2199C220.296 14.3094 222.238 13.8541 224.413 13.8541C226.433 13.8541 228.207 14.2703 229.735 15.1029C231.289 15.9094 232.467 17.1061 233.27 18.6931L229.541 20.8785C228.919 19.8898 228.155 19.1614 227.249 18.6931C226.369 18.2248 225.41 17.9907 224.375 17.9907C223.183 17.9907 222.109 18.2508 221.151 18.7711C220.193 19.2915 219.442 20.0459 218.898 21.0346C218.354 21.9972 218.082 23.1549 218.082 24.5077C218.082 25.8606 218.354 27.0313 218.898 28.0199C219.442 28.9825 220.193 29.724 221.151 30.2443C222.109 30.7646 223.183 31.0248 224.375 31.0248C225.41 31.0248 226.369 30.7907 227.249 30.3224C228.155 29.8541 228.919 29.1256 229.541 28.137L233.27 30.3224C232.467 31.8833 231.289 33.0931 229.735 33.9516C228.207 34.7842 226.433 35.2004 224.413 35.2004Z" fill="#000305"/>
<path d="M242.404 30.2833L242.521 24.1565L253.358 14.0882H259.184L249.979 23.376L247.415 25.5224L242.404 30.2833ZM238.442 34.9272V5.97115H243.298V34.9272H238.442ZM254.096 34.9272L246.522 25.5224L249.59 21.6199L260 34.9272H254.096Z" fill="#000305"/>
<path d="M8.56428 1.92113C6.89899 4.85182 6.74039 4.5548 10.0313 4.5548H12.8861L13.8179 2.91123C14.3333 2.02014 14.9281 0.990439 15.1462 0.634003L15.5427 0.000339985H12.5888H9.65466L8.56428 1.92113Z" fill="url(#paint0_linear_417_2)"/>
<path d="M16.7919 1.20825C16.4152 1.86171 16.098 2.45577 16.098 2.49538C16.098 2.55478 15.9394 2.85181 15.7213 3.12904C15.5231 3.42607 15.305 3.86171 15.2257 4.09934C15.0869 4.51518 15.1266 4.51518 17.6642 4.53498L20.2414 4.57458L21.2327 2.89142C21.7679 1.98053 22.3627 0.950823 22.5213 0.614189L22.8583 0.000327587H20.182H17.5056L16.7919 1.20825Z" fill="url(#paint1_linear_417_2)"/>
<path d="M23.6909 2.17821C22.997 3.36632 22.4419 4.39603 22.4419 4.45543C22.4419 4.49504 30.6296 4.55444 40.661 4.55444C55.0738 4.55444 58.9198 4.51484 59.0784 4.31682C59.356 3.98019 61.1799 0.772265 61.3583 0.336622C61.4773 0.0197902 60.5257 -1.19209e-05 43.1986 -1.19209e-05H24.92L23.6909 2.17821Z" fill="url(#paint2_linear_417_2)"/>
<path d="M5.72928 6.87131C5.47156 7.28715 4.87681 8.31685 4.42083 9.16834L3.56836 10.7129L6.50245 10.6535L9.43655 10.5941L9.952 9.70299C10.2295 9.20794 10.8045 8.21784 11.2208 7.46537L11.9741 6.13863H9.0797H6.18526L5.72928 6.87131Z" fill="url(#paint3_linear_417_2)"/>
<path d="M12.7474 8.27727C12.0734 9.46539 11.5381 10.4951 11.5381 10.5545C11.5381 10.6337 12.7474 10.6931 14.2145 10.6931C15.6815 10.6931 16.8908 10.6139 16.8908 10.5149C16.8908 10.3367 18.0407 8.23767 18.913 6.77232L19.3095 6.13866H16.6331H13.9567L12.7474 8.27727Z" fill="url(#paint4_linear_417_2)"/>
<path d="M20.1027 8.29708C19.4286 9.48519 18.8735 10.4951 18.8735 10.5743C18.8735 10.6337 27.1207 10.6931 37.1918 10.6931H55.5101L56.7987 8.41589L58.1071 6.13866H39.7096H21.3318L20.1027 8.29708Z" fill="url(#paint5_linear_417_2)"/>
<path d="M1.96267 13.3072C1.68512 13.8814 1.1102 14.9111 0.713699 15.5844L0 16.8319H2.89445H5.76907L6.60171 15.3864C7.05769 14.6141 7.65244 13.5844 7.91016 13.1091L8.40579 12.2775H5.45187H2.49795L1.96267 13.3072Z" fill="url(#paint6_linear_417_2)"/>
<path d="M9.19887 14.4359C8.52483 15.624 7.96973 16.6537 7.96973 16.7131C7.96973 16.7725 9.11957 16.8319 10.5271 16.8319H13.0846L13.6793 15.8814C13.9965 15.3666 14.5913 14.3567 15.0076 13.6042L15.7411 12.2775H13.0846H10.4478L9.19887 14.4359Z" fill="url(#paint7_linear_417_2)"/>
<path d="M16.5934 14.3764C15.9392 15.5249 15.3642 16.5348 15.3444 16.6536C15.3048 16.7725 22.1047 16.8121 33.6429 16.7923L52.0206 16.7329L52.5361 15.8418C53.5075 14.0992 54.3599 12.515 54.3599 12.3962C54.3599 12.3368 46.1326 12.2774 36.0813 12.2774L17.7829 12.2972L16.5934 14.3764Z" fill="url(#paint8_linear_417_2)"/>
<path d="M32.9295 18.5548L27.6362 18.6142L27.2794 19.3667C27.101 19.7627 25.6537 22.733 24.0677 25.941C18.3185 37.6835 17.2876 39.8023 17.2876 39.9014C17.2876 39.9608 19.9243 40.0004 23.136 40.0004H29.0042L32.3744 33.1093C37.3505 23.0103 39.4916 18.634 39.4916 18.5152C39.4916 18.4558 39.1942 18.436 38.8572 18.4558C38.5003 18.4954 35.8239 18.535 32.9295 18.5548Z" fill="url(#paint9_linear_417_2)"/>
<defs>
<linearGradient id="paint0_linear_417_2" x1="11.4745" y1="4.56323" x2="11.4745" y2="0.000339985" gradientUnits="userSpaceOnUse">
<stop stop-color="#009DFF"/>
<stop offset="1" stop-color="#4C85FF"/>
</linearGradient>
<linearGradient id="paint1_linear_417_2" x1="19.02" y1="4.57458" x2="19.02" y2="0.000327587" gradientUnits="userSpaceOnUse">
<stop stop-color="#009DFF"/>
<stop offset="1" stop-color="#4C85FF"/>
</linearGradient>
<linearGradient id="paint2_linear_417_2" x1="41.9042" y1="4.55444" x2="41.9042" y2="-1.19209e-05" gradientUnits="userSpaceOnUse">
<stop stop-color="#009DFF"/>
<stop offset="1" stop-color="#4C85FF"/>
</linearGradient>
<linearGradient id="paint3_linear_417_2" x1="7.77125" y1="10.7129" x2="7.77125" y2="6.13863" gradientUnits="userSpaceOnUse">
<stop stop-color="#009DFF"/>
<stop offset="1" stop-color="#4C85FF"/>
</linearGradient>
<linearGradient id="paint4_linear_417_2" x1="15.4238" y1="10.6931" x2="15.4238" y2="6.13866" gradientUnits="userSpaceOnUse">
<stop stop-color="#009DFF"/>
<stop offset="1" stop-color="#4C85FF"/>
</linearGradient>
<linearGradient id="paint5_linear_417_2" x1="38.4903" y1="10.6931" x2="38.4903" y2="6.13866" gradientUnits="userSpaceOnUse">
<stop stop-color="#009DFF"/>
<stop offset="1" stop-color="#4C85FF"/>
</linearGradient>
<linearGradient id="paint6_linear_417_2" x1="4.20289" y1="16.8319" x2="4.20289" y2="12.2775" gradientUnits="userSpaceOnUse">
<stop stop-color="#009DFF"/>
<stop offset="1" stop-color="#4C85FF"/>
</linearGradient>
<linearGradient id="paint7_linear_417_2" x1="11.8554" y1="16.8319" x2="11.8554" y2="12.2775" gradientUnits="userSpaceOnUse">
<stop stop-color="#009DFF"/>
<stop offset="1" stop-color="#4C85FF"/>
</linearGradient>
<linearGradient id="paint8_linear_417_2" x1="34.8521" y1="16.7971" x2="34.8521" y2="12.2774" gradientUnits="userSpaceOnUse">
<stop stop-color="#009DFF"/>
<stop offset="1" stop-color="#4C85FF"/>
</linearGradient>
<linearGradient id="paint9_linear_417_2" x1="28.3896" y1="40.0004" x2="28.3896" y2="18.4484" gradientUnits="userSpaceOnUse">
<stop stop-color="#009DFF"/>
<stop offset="1" stop-color="#4C85FF"/>
</linearGradient>
</defs>
</svg>
